<?xml version="1.0" encoding="UTF-8" standalone="no"?>
<svg
   version="1.0"
   width="3740.5867pt"
   height="3993.1582pt"
   viewBox="0 0 3740.5867 3993.1582"
   preserveAspectRatio="xMidYMid"
   id="svg310"
   sodipodi:docname="geektech_logo-psplash-transparent.svg"
   inkscape:version="1.2.2 (b0a8486541, 2022-12-01)"
   inkscape:export-filename="rpi-splash_screen.png"
   inkscape:export-xdpi="18.478386"
   inkscape:export-ydpi="18.478386"
   xmlns:inkscape="http://www.inkscape.org/namespaces/inkscape"
   xmlns:sodipodi="http://sodipodi.sourceforge.net/DTD/sodipodi-0.dtd"
   xmlns="http://www.w3.org/2000/svg"
   xmlns:svg="http://www.w3.org/2000/svg">
  <defs
     id="defs314" />
  <sodipodi:namedview
     id="namedview312"
     pagecolor="#ffffff"
     bordercolor="#666666"
     borderopacity="1.0"
     inkscape:showpageshadow="2"
     inkscape:pageopacity="0.0"
     inkscape:pagecheckerboard="0"
     inkscape:deskcolor="#d1d1d1"
     inkscape:document-units="pt"
     showgrid="false"
     inkscape:zoom="0.0625"
     inkscape:cx="-3000"
     inkscape:cy="3392"
     inkscape:window-width="2520"
     inkscape:window-height="1411"
     inkscape:window-x="0"
     inkscape:window-y="0"
     inkscape:window-maximized="1"
     inkscape:current-layer="svg310" />
  <metadata
     id="metadata254">
Created by potrace 1.16, written by Peter Selinger 2001-2019
</metadata>
  <g
     id="g1041"
     transform="translate(-255.35256,-0.0289123)">
    <g
       transform="matrix(0.08945671,0,0,-0.08945671,224.26457,3388.5811)"
       fill="#000000"
       stroke="none"
       id="g308"
       inkscape:label="g308"
       style="display:inline">
      <path
         d="m 10483,24880 c -89,-6 -124,-13 -170,-35 -109,-50 -181,-153 -204,-295 -11,-67 -46,-335 -54,-410 -9,-83 -2,-78 -184,-140 -68,-23 -138,-48 -155,-55 -17,-8 -65,-28 -106,-45 -101,-43 -262,-120 -280,-135 -39,-33 -54,-28 -161,55 -57,45 -140,108 -184,141 -44,33 -87,66 -95,72 -8,7 -40,28 -70,47 l -55,35 h -120 c -113,0 -123,-2 -168,-28 -94,-55 -678,-633 -750,-742 -53,-80 -66,-198 -34,-310 10,-37 95,-178 121,-200 6,-5 34,-39 61,-75 27,-36 80,-102 117,-148 37,-46 68,-88 68,-94 0,-5 -9,-22 -20,-38 -51,-72 -162,-327 -257,-590 l -48,-134 -195,-28 c -107,-16 -236,-34 -286,-42 -49,-7 -107,-21 -128,-31 -48,-23 -147,-113 -166,-152 -8,-15 -22,-40 -32,-55 -17,-24 -18,-64 -18,-558 0,-494 1,-534 18,-558 10,-15 24,-40 32,-57 8,-16 39,-53 68,-82 61,-60 120,-86 232,-102 41,-5 165,-23 275,-38 l 200,-29 48,-134 c 27,-74 62,-169 79,-210 16,-41 35,-88 41,-105 7,-16 44,-95 84,-174 40,-79 69,-149 66,-155 -8,-12 -155,-198 -212,-266 -21,-25 -61,-80 -90,-123 -42,-63 -56,-94 -69,-155 -14,-71 -14,-83 2,-154 14,-61 27,-91 63,-140 66,-90 626,-645 701,-695 54,-36 71,-42 137,-48 136,-13 215,8 305,82 8,7 50,39 92,70 42,32 121,92 175,134 54,41 103,78 109,82 6,3 51,-14 100,-39 122,-62 348,-159 469,-201 227,-79 210,-65 224,-185 38,-323 60,-445 93,-514 27,-58 82,-120 131,-148 80,-45 148,-51 622,-51 540,0 580,5 675,91 21,20 50,54 64,78 29,49 64,175 72,256 5,62 45,379 49,395 2,6 61,30 131,53 113,38 189,65 259,93 11,4 102,47 202,94 176,84 184,87 205,71 13,-9 73,-57 133,-106 136,-111 260,-202 317,-232 38,-20 57,-23 159,-23 h 116 l 74,49 c 101,66 670,635 722,721 49,83 65,170 48,266 -12,63 -22,84 -85,175 -72,104 -255,336 -275,349 -21,13 -10,52 47,165 84,170 171,382 232,573 12,37 25,67 30,67 4,0 85,11 180,25 95,14 186,25 203,25 53,0 225,47 270,73 82,49 130,120 154,229 13,61 16,144 17,493 0,522 -7,576 -91,686 -20,26 -57,59 -82,72 -51,27 -206,67 -267,68 -22,0 -117,13 -213,28 l -173,27 -14,32 c -7,18 -31,83 -53,145 -58,166 -122,317 -190,452 -34,66 -61,127 -61,136 0,9 19,41 43,70 122,152 169,212 230,296 83,116 83,116 96,188 8,44 8,81 0,140 -10,70 -17,88 -57,145 -50,71 -476,508 -612,627 -121,107 -151,123 -252,130 -49,3 -106,1 -140,-6 -70,-15 -148,-70 -503,-355 -23,-18 -24,-18 -166,52 -197,96 -338,156 -469,197 -30,10 -80,26 -110,37 l -55,19 -23,187 c -13,103 -25,207 -28,232 -15,130 -74,264 -142,322 -62,52 -111,68 -243,78 -142,11 -680,11 -846,0 z m 750,-508 c 3,-16 11,-78 17,-138 6,-60 20,-181 30,-269 11,-88 22,-188 25,-223 8,-86 11,-90 58,-97 175,-28 488,-126 711,-224 64,-28 277,-143 336,-181 88,-58 170,-95 184,-85 7,6 60,47 117,93 57,45 133,106 169,134 36,29 112,90 169,136 l 104,83 144,-143 c 80,-79 181,-183 225,-231 l 81,-88 -47,-67 c -50,-71 -124,-167 -206,-267 -124,-151 -180,-227 -180,-245 0,-20 35,-91 69,-138 11,-17 21,-32 21,-35 0,-3 19,-36 42,-73 48,-80 155,-299 191,-394 72,-189 100,-280 144,-468 15,-68 36,-131 45,-142 12,-13 37,-20 85,-24 37,-3 147,-15 243,-26 96,-10 209,-22 250,-25 41,-3 92,-8 113,-12 l 37,-6 v -327 -327 l -88,-12 c -49,-6 -104,-11 -123,-11 -30,0 -163,-15 -447,-52 -77,-9 -82,-12 -88,-37 -33,-162 -86,-361 -120,-451 -13,-36 -24,-70 -24,-75 0,-31 -153,-350 -221,-463 -21,-35 -39,-67 -39,-70 0,-3 -10,-19 -23,-36 -13,-17 -37,-54 -54,-82 l -31,-51 99,-124 c 54,-68 136,-171 181,-229 46,-58 90,-112 98,-120 28,-28 80,-98 80,-107 0,-4 -103,-111 -228,-236 l -229,-228 -134,106 c -74,59 -163,131 -199,160 -145,119 -231,185 -241,185 -13,0 -104,-47 -144,-73 -16,-11 -42,-28 -56,-38 -97,-65 -390,-202 -554,-259 -151,-52 -400,-120 -443,-120 -36,0 -70,-37 -76,-83 -6,-57 -43,-405 -59,-552 l -12,-120 -327,-3 c -305,-2 -327,-1 -332,15 -3,10 -10,77 -15,150 -6,73 -15,160 -20,195 -6,35 -15,117 -21,183 -6,66 -15,136 -20,156 -12,42 -19,46 -165,79 -55,12 -134,33 -175,45 -41,13 -84,25 -95,28 -26,7 -135,45 -160,57 -11,5 -49,21 -85,36 -97,39 -263,122 -368,184 -180,107 -204,120 -216,120 -7,0 -75,-50 -152,-111 -191,-152 -342,-269 -386,-302 l -38,-28 -52,48 c -80,71 -408,397 -408,404 0,7 150,197 224,284 23,28 64,79 91,115 27,36 69,89 94,118 l 45,53 -32,62 c -18,34 -57,103 -87,152 -83,137 -235,452 -235,490 0,6 -7,22 -14,37 -23,44 -116,371 -130,459 -10,60 -34,76 -123,83 -43,4 -132,14 -198,22 -66,9 -172,19 -236,24 -64,5 -135,12 -157,16 l -42,7 v 327 327 l 53,7 c 28,4 102,11 162,16 61,5 166,16 235,25 69,8 156,18 193,21 78,7 103,25 113,83 3,20 15,70 26,111 11,41 24,93 29,115 41,193 194,550 333,775 25,41 60,103 78,137 l 32,62 -45,53 c -25,29 -67,82 -94,118 -27,36 -68,88 -91,115 -79,93 -224,278 -224,285 0,4 104,109 231,234 l 230,227 67,-52 c 37,-29 83,-67 102,-84 19,-17 73,-62 120,-98 47,-37 121,-97 165,-133 44,-36 90,-72 102,-80 25,-18 29,-16 133,51 201,129 488,274 605,305 17,4 48,14 70,23 47,17 167,53 210,62 127,27 233,58 248,73 12,12 20,45 27,102 35,307 50,445 55,519 4,46 9,90 12,97 4,12 63,14 328,14 h 323 z"
         id="path274"
         style="fill:#2d93e0;fill-opacity:1" />
      <path
         d="m 10635,22868 c -151,-22 -313,-67 -493,-136 -53,-21 -303,-149 -312,-161 -3,-3 -32,-24 -65,-45 -158,-103 -387,-333 -490,-491 -21,-33 -42,-62 -45,-65 -8,-6 -101,-173 -122,-220 -54,-117 -71,-158 -78,-185 -4,-16 -15,-50 -23,-75 -68,-196 -82,-302 -81,-610 0,-195 4,-276 17,-345 33,-176 75,-307 165,-505 26,-58 112,-212 122,-220 4,-3 24,-33 46,-66 101,-158 325,-378 520,-509 84,-57 286,-164 379,-202 34,-14 145,-50 190,-63 17,-4 64,-17 105,-28 124,-34 394,-48 617,-33 215,15 331,42 582,136 121,44 320,163 471,280 89,69 321,313 389,408 185,259 309,564 346,852 17,131 19,447 5,583 -14,129 -73,349 -126,467 -37,85 -115,242 -140,285 -149,252 -455,557 -687,683 -121,66 -227,119 -262,133 -229,87 -331,112 -525,129 -180,16 -410,17 -505,3 z m 450,-482 c 327,-52 544,-145 757,-324 303,-255 469,-529 545,-897 28,-137 26,-435 -4,-570 -21,-92 -60,-221 -82,-270 -127,-277 -254,-447 -459,-610 -96,-76 -250,-172 -327,-202 -398,-157 -682,-171 -1076,-51 -92,28 -321,133 -350,160 -8,7 -41,33 -74,58 -201,150 -403,400 -487,605 -103,248 -137,464 -118,735 19,274 126,557 289,765 106,135 197,222 384,366 51,39 250,134 347,166 90,29 263,68 340,76 86,9 232,6 315,-7 z"
         id="path276"
         style="fill:#2d93e0;fill-opacity:1" />
      <g
         id="g4762"
         style="fill:#7761d1;fill-opacity:1">
        <path
           d="m 19605,27683 c -11,-3 -31,-15 -44,-26 -51,-47 -51,-49 -51,-607 0,-582 -2,-563 70,-600 53,-27 92,-25 130,6 62,53 60,33 60,607 v 524 l -34,45 c -31,40 -73,63 -105,57 -3,-1 -15,-3 -26,-6 z"
           id="path258"
           style="fill:#7761d1;fill-opacity:1" />
        <path
           d="m 21233,27683 c -13,-2 -36,-18 -53,-34 l -30,-31 v -557 c 0,-630 -5,-588 79,-626 49,-22 85,-11 131,42 l 30,34 v 546 546 l -25,33 c -21,28 -83,58 -105,53 -3,-1 -15,-4 -27,-6 z"
           id="path260"
           style="fill:#7761d1;fill-opacity:1" />
        <path
           d="m 22854,27680 c -30,-12 -62,-56 -74,-101 -7,-25 -10,-218 -8,-547 l 3,-509 29,-37 c 32,-42 87,-70 117,-61 11,4 36,20 55,37 58,52 60,65 54,628 -5,469 -7,507 -24,539 -28,50 -97,73 -152,51 z"
           id="path262"
           style="fill:#7761d1;fill-opacity:1" />
        <path
           d="m 20368,27651 -33,-29 -3,-541 c -2,-297 1,-555 6,-573 9,-36 68,-78 110,-78 32,0 96,35 121,66 21,26 21,34 21,569 v 543 l -40,36 c -36,32 -46,36 -95,36 -46,0 -60,-4 -87,-29 z"
           id="path264"
           style="fill:#7761d1;fill-opacity:1" />
        <path
           d="m 22008,27657 c -61,-57 -58,-26 -59,-594 -1,-570 -2,-558 59,-602 44,-31 78,-35 128,-16 76,29 74,11 74,615 0,572 0,568 -52,604 -36,25 -120,21 -150,-7 z"
           id="path266"
           style="fill:#7761d1;fill-opacity:1" />
        <path
           d="m 19155,26242 c -16,-1 -65,-17 -108,-34 -63,-25 -96,-47 -173,-115 -52,-46 -101,-95 -110,-108 -8,-13 -33,-70 -55,-127 l -39,-103 v -2100 -2100 l 32,-95 c 47,-145 64,-174 151,-256 97,-91 141,-117 243,-146 77,-21 95,-22 739,-25 363,-2 809,-4 990,-5 405,0 1805,-1 1860,0 22,0 178,1 348,2 272,1 316,3 385,21 99,26 155,55 248,131 82,66 118,113 139,180 7,23 24,68 36,98 l 24,55 v 2130 2130 l -38,92 c -20,51 -37,95 -37,98 0,4 -17,27 -37,51 -54,65 -154,141 -247,188 l -81,41 h -2120 c -1166,0 -2133,-1 -2150,-3 z m 2825,-270 c 34,-28 39,-85 34,-376 -6,-297 -6,-298 -73,-381 -22,-27 -59,-74 -81,-102 -52,-68 -88,-83 -200,-83 -87,0 -89,-1 -151,-42 -117,-79 -158,-164 -138,-289 12,-81 46,-130 129,-186 59,-41 66,-43 133,-43 65,0 75,3 132,40 33,22 73,52 87,67 33,37 49,120 46,248 l -3,100 41,60 c 23,34 50,67 59,75 22,18 98,117 115,150 31,58 39,145 40,407 0,218 3,269 16,303 27,68 39,70 324,70 294,0 312,-4 330,-70 18,-67 10,-1277 -9,-1310 -22,-40 -110,-150 -165,-208 -72,-76 -92,-84 -179,-76 -98,9 -148,-6 -202,-61 -67,-67 -79,-96 -79,-200 0,-76 3,-96 22,-126 40,-65 104,-116 161,-128 65,-14 78,-14 160,0 59,10 71,16 111,58 62,63 100,169 82,229 -7,21 -12,62 -12,89 0,54 23,98 98,188 95,113 109,132 130,177 12,27 26,78 32,115 5,38 9,330 8,659 0,431 2,596 11,612 22,41 61,52 189,52 172,0 205,-6 275,-54 50,-34 68,-54 98,-111 21,-38 42,-95 49,-125 8,-40 10,-420 8,-1385 -3,-1264 -4,-1332 -21,-1367 -34,-67 -39,-68 -545,-68 h -448 l -93,45 c -53,26 -125,72 -168,108 -41,34 -93,76 -115,92 -71,53 -81,73 -85,177 -5,121 -8,131 -45,173 -50,58 -110,93 -173,103 -74,12 -126,0 -190,-43 -95,-63 -115,-102 -115,-226 0,-116 28,-169 121,-229 70,-45 108,-54 174,-40 116,25 141,24 191,-5 26,-16 66,-44 88,-64 114,-101 254,-187 326,-201 28,-5 264,-10 526,-11 305,0 487,-4 506,-11 55,-20 62,-53 66,-324 3,-278 -2,-309 -58,-336 -32,-16 -74,-18 -430,-18 -458,0 -453,0 -512,89 -28,42 -45,56 -108,85 -101,48 -142,47 -240,-2 -71,-35 -76,-40 -109,-104 -19,-38 -36,-87 -38,-115 -9,-96 61,-219 150,-262 33,-16 63,-21 124,-21 101,0 151,24 209,101 70,91 57,88 524,89 384,0 407,-1 437,-20 41,-24 53,-67 53,-186 0,-124 -15,-193 -55,-260 -45,-75 -71,-102 -120,-124 -107,-49 -126,-52 -400,-50 -143,1 -561,1 -929,1 -736,0 -718,-2 -756,61 -18,30 -20,50 -20,235 0,220 -9,285 -48,353 -14,25 -89,108 -166,185 -169,167 -189,193 -205,265 -16,79 -17,699 -1,731 7,13 30,41 51,62 21,20 58,63 81,94 38,50 43,62 46,122 6,93 -10,139 -70,210 -58,69 -93,84 -193,84 -89,0 -134,-16 -187,-69 -39,-37 -52,-59 -68,-116 -19,-60 -20,-76 -10,-126 19,-96 29,-115 81,-162 28,-25 64,-57 80,-72 l 29,-26 v -179 c 0,-98 2,-266 3,-373 4,-184 5,-199 31,-265 25,-64 40,-84 196,-245 93,-96 182,-197 197,-225 28,-49 28,-53 31,-240 3,-210 -3,-236 -61,-279 -27,-20 -44,-21 -266,-24 -274,-4 -312,2 -338,51 -15,27 -17,62 -18,232 v 200 l -42,70 c -25,42 -83,111 -143,170 -56,55 -108,112 -115,126 -10,19 -14,61 -14,140 1,133 -10,167 -69,221 -101,91 -284,89 -379,-4 -25,-24 -51,-58 -58,-75 -17,-41 -21,-188 -5,-228 15,-39 63,-90 119,-126 43,-28 50,-29 165,-29 99,0 126,-3 146,-18 53,-36 207,-210 233,-262 26,-51 27,-61 27,-207 0,-170 -8,-206 -56,-238 -27,-18 -48,-20 -254,-20 -124,0 -364,-2 -535,-4 l -310,-3 -70,28 c -38,15 -82,36 -98,47 -28,19 -102,123 -118,166 -6,13 -10,614 -11,1405 -1,1100 1,1386 11,1404 25,46 61,52 323,51 161,0 255,-4 278,-12 24,-8 45,-27 66,-59 55,-84 120,-118 228,-118 89,0 148,23 195,76 57,65 71,101 71,185 0,91 -21,138 -93,206 -51,48 -55,50 -127,57 -105,9 -158,-3 -213,-49 -25,-21 -54,-53 -64,-72 -35,-67 -62,-73 -330,-73 -135,0 -254,5 -276,11 -68,19 -70,28 -72,317 0,141 3,270 8,285 18,56 14,55 633,58 533,3 572,2 612,-15 26,-11 53,-33 67,-54 101,-148 315,-161 433,-27 44,50 62,100 62,172 0,125 -54,203 -173,248 -89,33 -124,32 -212,-9 -59,-28 -79,-42 -101,-77 -35,-57 -48,-66 -109,-74 -27,-4 -297,-6 -599,-5 -602,1 -609,2 -618,56 -2,16 -3,90 -2,164 1,133 2,136 37,209 41,84 56,102 115,143 87,60 -4,57 1493,57 1308,1 1378,0 1399,-17 z m -1439,-572 c 30,-17 49,-64 49,-126 0,-50 -3,-59 -34,-90 -28,-28 -42,-34 -76,-34 -36,0 -48,6 -82,40 -40,40 -40,41 -36,102 4,53 9,65 36,89 26,23 42,29 78,29 25,0 54,-5 65,-10 z m 1154,-544 c 88,-37 96,-170 12,-209 -19,-9 -53,-17 -76,-17 -33,0 -47,7 -81,38 -56,55 -53,113 11,173 35,33 79,38 134,15 z m -1787,-282 c 26,-18 62,-84 62,-114 0,-26 -33,-92 -55,-110 -10,-8 -40,-14 -71,-14 -47,0 -58,4 -85,31 -58,57 -49,165 15,204 38,23 104,25 134,3 z m 2603,-397 c 93,-62 84,-194 -16,-232 -40,-16 -49,-16 -82,-4 -97,37 -112,171 -27,238 35,27 83,27 125,-2 z m -1604,-662 c 38,-40 43,-51 43,-91 0,-42 -5,-51 -45,-92 -44,-43 -46,-45 -92,-38 -103,14 -157,124 -96,197 28,33 93,68 127,69 11,0 39,-20 63,-45 z m 1043,-107 c 39,-27 53,-66 44,-127 -11,-82 -71,-110 -175,-81 -54,15 -73,42 -73,103 0,85 41,126 125,127 32,0 56,-7 79,-22 z m -1928,-993 c 42,-29 64,-86 54,-141 -8,-41 -85,-114 -121,-114 -34,0 -103,47 -121,83 -24,46 -10,101 40,153 51,53 91,58 148,19 z m 2428,-298 c 32,-15 60,-71 60,-118 0,-45 -26,-80 -79,-103 -50,-23 -99,-15 -135,21 -22,22 -26,34 -26,87 0,71 19,103 72,123 34,12 66,10 108,-10 z"
           id="path268"
           style="fill:#7761d1;fill-opacity:1;fill-rule:nonzero" />
        <path
           d="m 17385,25410 c -147,-22 -193,-153 -83,-232 l 33,-23 512,-3 c 341,-2 525,0 552,8 56,15 101,69 101,121 0,56 -13,75 -72,105 l -52,26 -476,2 c -261,1 -493,-1 -515,-4 z"
           id="path270"
           style="fill:#7761d1;fill-opacity:1" />
        <path
           d="m 24305,25411 c -170,-6 -182,-7 -212,-30 -64,-48 -68,-128 -10,-186 30,-30 38,-32 122,-38 50,-4 288,-7 530,-7 438,0 441,0 485,23 53,27 83,77 76,126 -7,43 -30,69 -82,92 -38,17 -76,19 -385,22 -189,2 -425,1 -524,-2 z"
           id="path272"
           style="fill:#7761d1;fill-opacity:1" />
        <path
           d="m 17324,24571 c -84,-38 -110,-119 -58,-181 53,-62 32,-60 613,-60 h 530 l 37,32 c 67,59 76,116 25,172 -52,57 -46,56 -598,56 -473,0 -511,-2 -549,-19 z"
           id="path278"
           style="fill:#7761d1;fill-opacity:1" />
        <path
           d="m 24145,24579 c -114,-27 -138,-150 -42,-223 l 33,-26 h 527 c 578,-1 557,-3 611,60 14,18 29,42 32,55 8,33 -20,81 -68,113 l -42,27 -505,2 c -289,1 -523,-3 -546,-8 z"
           id="path280"
           style="fill:#7761d1;fill-opacity:1" />
        <path
           d="m 17807,23763 c -432,-3 -491,-5 -513,-20 -32,-20 -54,-63 -54,-103 0,-44 52,-116 92,-129 21,-6 224,-10 547,-11 503,0 514,0 547,21 91,56 99,166 17,224 -29,20 -88,22 -636,18 z"
           id="path282"
           style="fill:#7761d1;fill-opacity:1" />
        <path
           d="m 24620,23760 -522,-5 -24,-30 c -48,-61 -43,-124 16,-186 l 37,-40 541,3 541,3 40,39 c 22,22 43,52 46,68 17,73 -34,144 -108,149 -24,2 -279,2 -567,-1 z"
           id="path284"
           style="fill:#7761d1;fill-opacity:1" />
        <path
           d="m 17333,22939 c -35,-10 -80,-58 -89,-95 -13,-51 25,-116 80,-139 24,-10 156,-13 554,-14 515,-2 523,-2 557,19 39,24 75,77 75,110 0,33 -36,86 -74,109 -32,20 -47,21 -552,20 -285,-1 -533,-5 -551,-10 z"
           id="path286"
           style="fill:#7761d1;fill-opacity:1" />
        <path
           d="m 24134,22942 c -12,-2 -36,-19 -55,-38 -29,-30 -34,-42 -34,-84 0,-40 5,-54 29,-79 15,-16 40,-34 55,-41 18,-7 187,-10 551,-8 l 525,3 33,23 c 18,13 42,42 53,64 18,34 19,44 8,69 -16,39 -61,76 -110,89 -35,10 -990,11 -1055,2 z"
           id="path288"
           style="fill:#7761d1;fill-opacity:1" />
        <path
           d="m 17365,22133 c -80,-8 -137,-95 -114,-172 13,-43 35,-63 83,-75 49,-12 1067,-9 1098,3 37,14 68,67 68,114 0,31 -8,46 -44,85 l -45,47 -503,1 c -277,0 -521,-1 -543,-3 z"
           id="path290"
           style="fill:#7761d1;fill-opacity:1" />
        <path
           d="m 24122,22124 c -50,-25 -77,-70 -76,-126 1,-53 24,-95 61,-109 15,-5 236,-11 534,-14 612,-4 625,-2 649,87 15,55 -1,100 -53,140 l -41,33 -521,2 c -464,3 -524,1 -553,-13 z"
           id="path292"
           style="fill:#7761d1;fill-opacity:1" />
        <path
           d="m 19578,20841 c -70,-67 -68,-53 -68,-621 0,-560 0,-557 59,-600 18,-12 49,-24 69,-27 31,-4 44,0 71,23 62,52 61,43 61,612 v 518 l -28,45 c -35,55 -52,69 -94,78 -29,7 -38,4 -70,-28 z"
           id="path294"
           style="fill:#7761d1;fill-opacity:1" />
        <path
           d="m 20409,20855 c -78,-51 -74,-15 -77,-617 -3,-609 -5,-590 70,-627 57,-27 95,-20 148,29 l 40,37 v 531 c 0,292 -4,541 -9,554 -14,37 -95,118 -116,117 -11,0 -36,-11 -56,-24 z"
           id="path296"
           style="fill:#7761d1;fill-opacity:1" />
        <path
           d="m 21206,20840 c -18,-19 -39,-45 -45,-57 -8,-15 -11,-184 -11,-566 v -545 l 38,-36 c 61,-60 104,-60 164,-2 19,19 37,45 40,58 2,13 3,258 0,543 -4,484 -5,522 -23,556 -21,43 -74,84 -106,84 -14,1 -37,-14 -57,-35 z"
           id="path298"
           style="fill:#7761d1;fill-opacity:1" />
        <path
           d="m 22882,20873 c -29,-6 -100,-95 -107,-136 -3,-18 -5,-262 -3,-542 l 3,-511 25,-31 c 55,-68 117,-81 171,-36 59,50 58,44 59,593 0,336 -4,516 -11,544 -10,38 -87,128 -107,125 -4,-1 -17,-4 -30,-6 z"
           id="path300"
           style="fill:#7761d1;fill-opacity:1" />
        <path
           d="m 22050,20859 c -14,-6 -36,-20 -48,-32 -54,-50 -52,-38 -55,-607 l -2,-529 40,-41 c 53,-54 100,-68 150,-44 20,9 46,31 56,48 18,29 19,60 19,564 0,517 -1,534 -20,573 -21,40 -71,79 -100,78 -8,0 -26,-5 -40,-10 z"
           id="path302"
           style="fill:#7761d1;fill-opacity:1" />
      </g>
      <path
         d="m 26683,18000 c -89,-6 -124,-13 -170,-35 -109,-50 -181,-153 -204,-295 -11,-67 -46,-335 -54,-410 -9,-83 -2,-78 -184,-140 -68,-23 -138,-48 -155,-55 -17,-8 -65,-28 -106,-45 -101,-43 -262,-120 -280,-135 -39,-33 -54,-28 -161,55 -57,45 -140,108 -184,141 -44,33 -87,66 -95,72 -8,7 -40,28 -70,47 l -55,35 h -120 c -113,0 -123,-2 -168,-28 -94,-55 -678,-633 -750,-742 -53,-80 -66,-198 -34,-310 10,-37 95,-178 121,-200 6,-5 34,-39 61,-75 27,-36 80,-102 117,-148 37,-46 68,-88 68,-94 0,-5 -9,-22 -20,-38 -51,-72 -162,-327 -257,-590 l -48,-134 -195,-28 c -107,-16 -236,-34 -286,-42 -49,-7 -107,-21 -128,-31 -48,-23 -147,-113 -166,-152 -8,-15 -22,-40 -32,-55 -17,-24 -18,-64 -18,-558 0,-494 1,-534 18,-558 10,-15 24,-40 32,-57 8,-16 39,-53 68,-82 61,-60 120,-86 232,-102 41,-5 165,-23 275,-38 l 200,-29 48,-134 c 27,-74 62,-169 79,-210 16,-41 35,-88 41,-105 7,-16 44,-95 84,-174 40,-79 69,-149 66,-155 -8,-12 -155,-198 -212,-266 -21,-25 -61,-80 -90,-123 -42,-63 -56,-94 -69,-155 -14,-71 -14,-83 2,-154 14,-61 27,-91 63,-140 66,-90 626,-645 701,-695 54,-36 71,-42 137,-48 136,-13 215,8 305,82 8,7 50,39 92,70 42,32 121,92 175,134 54,41 103,78 109,82 6,3 51,-14 100,-39 122,-62 348,-159 469,-201 227,-79 210,-65 224,-185 38,-323 60,-445 93,-514 27,-58 82,-120 131,-148 80,-45 148,-51 622,-51 540,0 580,5 675,91 21,20 50,54 64,78 29,49 64,175 72,256 5,62 45,379 49,395 2,6 61,30 131,53 113,38 189,65 259,93 11,4 102,47 202,94 176,84 184,87 205,71 13,-9 73,-57 133,-106 136,-111 260,-202 317,-232 38,-20 57,-23 159,-23 h 116 l 74,49 c 101,66 670,635 722,721 49,83 65,170 48,266 -12,63 -22,84 -85,175 -72,104 -255,336 -275,349 -21,13 -10,52 47,165 84,170 171,382 232,573 12,37 25,67 30,67 4,0 85,11 180,25 95,14 186,25 203,25 53,0 225,47 270,73 82,49 130,120 154,229 13,61 16,144 17,493 0,522 -7,576 -91,686 -20,26 -57,59 -82,72 -51,27 -206,67 -267,68 -22,0 -117,13 -213,28 l -173,27 -14,32 c -7,18 -31,83 -53,145 -58,166 -122,317 -190,452 -34,66 -61,127 -61,136 0,9 19,41 43,70 122,152 169,212 230,296 83,116 83,116 96,188 8,44 8,81 0,140 -10,70 -17,88 -57,145 -50,71 -476,508 -612,627 -121,107 -151,123 -252,130 -49,3 -106,1 -140,-6 -70,-15 -148,-70 -503,-355 -23,-18 -24,-18 -166,52 -197,96 -338,156 -469,197 -30,10 -80,26 -110,37 l -55,19 -23,187 c -13,103 -25,207 -28,232 -15,130 -74,264 -142,322 -62,52 -111,68 -243,78 -142,11 -680,11 -846,0 z m 750,-508 c 3,-16 11,-78 17,-138 6,-60 20,-181 30,-269 11,-88 22,-188 25,-223 8,-86 11,-90 58,-97 175,-28 488,-126 711,-224 64,-28 277,-143 336,-181 88,-58 170,-95 184,-85 7,6 60,47 117,93 57,45 133,106 169,134 36,29 112,90 169,136 l 104,83 144,-143 c 80,-79 181,-183 225,-231 l 81,-88 -47,-67 c -50,-71 -124,-167 -206,-267 -124,-151 -180,-227 -180,-245 0,-20 35,-91 69,-138 11,-17 21,-32 21,-35 0,-3 19,-36 42,-73 48,-80 155,-299 191,-394 72,-189 100,-280 144,-468 15,-68 36,-131 45,-142 12,-13 37,-20 85,-24 37,-3 147,-15 243,-26 96,-10 209,-22 250,-25 41,-3 92,-8 113,-12 l 37,-6 v -327 -327 l -88,-12 c -49,-6 -104,-11 -123,-11 -30,0 -163,-15 -447,-52 -77,-9 -82,-12 -88,-37 -33,-162 -86,-361 -120,-451 -13,-36 -24,-70 -24,-75 0,-31 -153,-350 -221,-463 -21,-35 -39,-67 -39,-70 0,-3 -10,-19 -23,-36 -13,-17 -37,-54 -54,-82 l -31,-51 99,-124 c 54,-68 136,-171 181,-229 46,-58 90,-112 98,-120 28,-28 80,-98 80,-107 0,-4 -103,-111 -228,-236 l -229,-228 -134,106 c -74,59 -163,131 -199,160 -145,119 -231,185 -241,185 -13,0 -104,-47 -144,-73 -16,-11 -42,-28 -56,-38 -97,-65 -390,-202 -554,-259 -151,-52 -400,-120 -443,-120 -36,0 -70,-37 -76,-83 -6,-57 -43,-405 -59,-552 l -12,-120 -327,-3 c -305,-2 -327,-1 -332,15 -3,10 -10,77 -15,150 -6,73 -15,160 -20,195 -6,35 -15,117 -21,183 -6,66 -15,136 -20,156 -12,42 -19,46 -165,79 -55,12 -134,33 -175,45 -41,13 -84,25 -95,28 -26,7 -135,45 -160,57 -11,5 -49,21 -85,36 -97,39 -263,122 -368,184 -180,107 -204,120 -216,120 -7,0 -75,-50 -152,-111 -191,-152 -342,-269 -386,-302 l -38,-28 -52,48 c -80,71 -408,397 -408,404 0,7 150,197 224,284 23,28 64,79 91,115 27,36 69,89 94,118 l 45,53 -32,62 c -18,34 -57,103 -87,152 -83,137 -235,452 -235,490 0,6 -7,22 -14,37 -23,44 -116,371 -130,459 -10,60 -34,76 -123,83 -43,4 -132,14 -198,22 -66,9 -172,19 -236,24 -64,5 -135,12 -157,16 l -42,7 v 327 327 l 53,7 c 28,4 102,11 162,16 61,5 166,16 235,25 69,8 156,18 193,21 78,7 103,25 113,83 3,20 15,70 26,111 11,41 24,93 29,115 41,193 194,550 333,775 25,41 60,103 78,137 l 32,62 -45,53 c -25,29 -67,82 -94,118 -27,36 -68,88 -91,115 -79,93 -224,278 -224,285 0,4 104,109 231,234 l 230,227 67,-52 c 37,-29 83,-67 102,-84 19,-17 73,-62 120,-98 47,-37 121,-97 165,-133 44,-36 90,-72 102,-80 25,-18 29,-16 133,51 201,129 488,274 605,305 17,4 48,14 70,23 47,17 167,53 210,62 127,27 233,58 248,73 12,12 20,45 27,102 35,307 50,445 55,519 4,46 9,90 12,97 4,12 63,14 328,14 h 323 z"
         id="path304"
         style="fill:#2e93e1;fill-opacity:1" />
      <path
         d="m 26835,15988 c -151,-22 -313,-67 -493,-136 -53,-21 -303,-149 -312,-161 -3,-3 -32,-24 -65,-45 -158,-103 -387,-333 -490,-491 -21,-33 -42,-62 -45,-65 -8,-6 -101,-173 -122,-220 -54,-117 -71,-158 -78,-185 -4,-16 -15,-50 -23,-75 -68,-196 -82,-302 -81,-610 0,-195 4,-276 17,-345 33,-176 75,-307 165,-505 26,-58 112,-212 122,-220 4,-3 24,-33 46,-66 101,-158 325,-378 520,-509 84,-57 286,-164 379,-202 34,-14 145,-50 190,-63 17,-4 64,-17 105,-28 124,-34 394,-48 617,-33 215,15 331,42 582,136 121,44 320,163 471,280 89,69 321,313 389,408 185,259 309,564 346,852 17,131 19,447 5,583 -14,129 -73,349 -126,467 -37,85 -115,242 -140,285 -149,252 -455,557 -687,683 -121,66 -227,119 -262,133 -229,87 -331,112 -525,129 -180,16 -410,17 -505,3 z m 450,-482 c 327,-52 544,-145 757,-324 303,-255 469,-529 545,-897 28,-137 26,-435 -4,-570 -21,-92 -60,-221 -82,-270 -127,-277 -254,-447 -459,-610 -96,-76 -250,-172 -327,-202 -398,-157 -682,-171 -1076,-51 -92,28 -321,133 -350,160 -8,7 -41,33 -74,58 -201,150 -403,400 -487,605 -103,248 -137,464 -118,735 19,274 126,557 289,765 106,135 197,222 384,366 51,39 250,134 347,166 90,29 263,68 340,76 86,9 232,6 315,-7 z"
         id="path306"
         style="fill:#2e93e1;fill-opacity:1" />
      <g
         id="g5500">
        <path
           style="opacity:1;fill:#3cdb4d;fill-opacity:1;fill-rule:nonzero;stroke-width:0.5"
           d="m 1027.589,1320.7251 c 0,0 30.815,-19.0201 36.2723,-22.9586 2.0625,-1.4885 9.3668,-5.2996 13.9043,-8.1111 4.5375,-2.8115 11.0095,-6.0892 15.6354,-8.9547 19.928,-12.3446 40.5933,-22.234 56.7109,-30.2941 32.3728,-16.189 44.8872,-21.0094 92.8881,-38.816 12.925,-4.7947 27.1,-10.1288 31.5,-11.8535 17.4829,-6.8531 53.7308,-19.0845 79.9716,-26.9853 37.8953,-11.4099 50.2465,-14.9077 94.0191,-25.216 11.8064,-2.7804 26.0573,-6.1433 31.7134,-7.5179 42.069,-10.2239 59.0289,-14.0222 74.2959,-17.2678 6.325,-1.3447 18.025,-4.0168 26,-5.938 36.4065,-8.7706 73.9279,-16.7033 107.2744,-22.2808 8.3875,-1.4029 25.9524,-4.42 39.1524,-6.7345 13.2,-2.3145 27.5869,-4.8163 31.9869,-5.5241 4.4,-0.7077 14.9003,-2.191 23.2672,-3.6716 18.7133,-3.3114 22.7243,-3.618 30.4703,-3.6232 11.2356,-0.01 22.403,2.0504 41.1965,7.3964 34.9423,9.9395 53.4963,18.3359 115.1523,50.8702 12.65,6.6751 30.2,16.0878 39,20.917 19.4216,10.6583 44.259,23.2342 51.4063,26.0287 12.6964,4.964 25.1325,7.1662 53.8437,9.5343 54.8041,4.5203 94.0192,4.6916 219.25,0.9577 11.2373,-0.335 74.0988,-0.6414 160.125,-0.7805 l 141.7203,-0.6884 -0.013,51.6729 0.2823,51.5027 -129.1349,0.3406 c -330.357,0.8713 -411.6366,-0.4151 -445.1488,-4.126 -19.1374,-2.1192 -32.2113,-7.831 -50.2923,-15.2387 -5.2753,-2.1613 -44.4343,-23.4944 -67.157,-35.5484 -38.924,-20.6485 -43.8709,-21.6463 -65.4112,-32.5143 -7.3009,-3.6837 -27.223,-13.2581 -31.5937,-15.316 -8.457,-3.982 -13.3986,-5.0288 -22.5715,-6.4439 -6.5878,-1.0163 -20.7236,-1.4805 -27.4886,-0.6086 -8.5482,1.1017 -31.4044,5.1252 -44.3895,7.8047 -15.403,3.1783 -65.5277,11.4677 -87.9268,15.256 -46.7663,7.9097 -91.5095,17.3175 -152.25,32.0124 -6.7157,1.6248 -24.0191,6.182 -40.75,10.7325 -3.85,1.0471 -14.3953,4.3719 -23.1953,7.0302 -8.8,2.6584 -23.7922,6.9743 -33.5547,9.5908 -35.4387,9.4983 -58.8475,16.384 -94.2891,28.1604 -24.0407,7.9881 -33.6304,11.6125 -50.1679,18.6835 -6.6,2.822 -17.5805,7.3849 -24.043,10.1397 -23.302,9.9332 -54.3447,27.7696 -107.8536,55.4388 -13.9327,7.2045 -35.2075,25.9703 -35.2075,25.9703 -20.57,-22.1009 -74.6002,-83.0278 -74.6002,-83.0278 z"
           id="path1513"
           transform="matrix(7.5,0,0,-7.5,0,37880)"
           sodipodi:nodetypes="cssssssssssssssscssssssscccsssssssssssssssssscc" />
        <path
           style="opacity:1;fill:#3cdb4d;fill-opacity:1;fill-rule:nonzero;stroke-width:1.87576"
           d="m 19757.478,28573.802 0.06,387.091 984.147,9.046 c 0,0 90.316,6.463 112.563,13.035 25.122,7.421 25.896,10.394 28.095,107.916 2.281,101.108 5.54,806.517 5.555,1202.281 0.02,176.106 -0.128,380.437 0.243,452.127 l -0.148,132.998 771.23,-0.09 -0.901,-205.603 c -0.128,-448.654 -3.692,-1493.421 -5.516,-1617.376 -2.995,-203.614 -5.238,-245.549 -15.257,-285.281 -48.119,-190.81 -156.368,-361.162 -311.043,-457.159 -77.029,-47.806 -127.004,-71.942 -268.862,-107.564 l -61,-15.317 -620.089,-1.894 -618.433,-0.9 -0.663,386.688 z"
           id="path1516"
           sodipodi:nodetypes="cccsscccccssssccccc" />
        <path
           style="opacity:1;fill:#3cdb4d;fill-opacity:1;fill-rule:nonzero;stroke-width:3.9;stroke-dasharray:none"
           d="m 20887.34,34378.779 v 3500.461 h 387.484 384.66 l 0.213,-2231.496 c 0.16,-1663.179 -1.204,-2806.247 -0.947,-3500.295 l 0.47,-1269.249 -771.218,0.117 z"
           id="path1519"
           sodipodi:nodetypes="ccccssccc" />
      </g>
      <path
         style="fill:#d04241;fill-opacity:1;stroke:none;stroke-width:7.5px;stroke-linecap:butt;stroke-linejoin:miter;stroke-opacity:1"
         d="m 3116.3086,17179.941 c 416.9621,1071.94 836.7442,2443.94 1284.082,3649.278 260.0537,700.707 508.0771,1406.603 799.8047,2094.726 77.4182,182.613 165.7764,360.416 251.9532,539.063 97.1523,201.399 193.7651,403.198 298.8281,600.586 65.9616,123.926 135.2797,246.13 208.0078,366.21 72.832,120.251 146.2807,240.464 228.5156,354.492 78.4165,108.733 164.9525,211.482 251.9531,313.477 89.7389,105.205 179.0826,211.321 278.3204,307.617 92.9694,90.214 195.0738,170.614 295.8984,251.954 68.8639,55.556 148.3563,98.584 210.9375,161.133 14.7818,14.774 28.1078,31.441 38.0859,49.804 77.7181,143.031 101.0642,309.864 164.0625,459.961 44.1171,105.112 95.0506,207.42 149.4144,307.617 47.8424,88.177 97.2891,175.947 155.2733,257.812 33.6781,47.549 68.5081,95.249 111.3277,134.766 125.2287,115.569 424.4388,323.364 424.4388,323.364 l -560.2881,622.75 c 0,0 -293.3734,-232.3 -409.0723,-333.809 -53.9838,-47.363 -106.8135,-96.806 -152.3438,-152.344 -53.5752,-65.351 -98.5364,-137.659 -140.625,-210.937 -48.7263,-84.834 -84.9459,-176.273 -128.9062,-263.672 -28.6542,-56.968 -58.007,-113.589 -87.8906,-169.922 -29.6937,-55.975 -63.2048,-109.963 -90.8204,-166.992 -50.9118,-105.139 -67.5183,-228.878 -137.6953,-322.266 -16.6761,-22.192 -43.0762,-35.026 -64.4531,-52.734 -91.2824,-75.618 -183.7792,-149.865 -272.461,-228.516 -96.1418,-85.268 -193.0368,-170.225 -281.25,-263.672 -105.6581,-111.926 -202.5206,-232.133 -295.8984,-354.492 -114.0583,-149.458 -219.7911,-305.265 -322.2656,-462.891 -105.8003,-162.742 -202.1349,-331.451 -301.7578,-498.046 -35.5006,-59.366 -73.1213,-117.571 -105.4688,-178.712 -95.4045,-180.328 -174.5959,-368.78 -260.7421,-553.71 -92.624,-198.835 -190.0211,-395.6 -275.3907,-597.656 -49.6905,-117.61 -92.4699,-238.024 -137.6953,-357.422 -69.3943,-183.205 -135.9654,-367.47 -205.0781,-550.781 -68.5895,-181.924 -141.2776,-362.308 -208.0078,-544.922 -74.2018,-203.061 -139.2026,-409.414 -213.8672,-612.305 -74.7671,-203.17 -156.3158,-403.779 -234.38,-605.705 -50.4493,-130.495 -101.9488,-260.591 -151.227,-391.533 -49.4765,-131.469 -97.9779,-263.314 -145.0122,-395.676 -85.2631,-239.944 -168.5265,-480.621 -248.6777,-722.321 -67.7558,-204.321 -131.0213,-410.104 -196.289,-615.234 -32.3068,-101.537 -63.8911,-203.305 -96.6797,-304.687 -27.8439,-86.093 -87.0117,-256.788 -87.0117,-256.788 222.5217,-208.754 441.3861,-418.383 660.3515,-626.865 z"
         id="path1584"
         sodipodi:nodetypes="ccccccccccccccccccccccccccccccccccccsccccccccc" />
      <path
         style="opacity:1;fill:#e2cb2d;fill-opacity:1;fill-rule:nonzero;stroke-width:2.20971"
         d="m 327.45227,2676.4224 c 0,0 -18.56168,56.5005 -22.96581,68.199 -38.47014,121.3774 -74.0257,243.8862 -105.43788,367.2969 -40.07975,148.3178 -71.69195,298.8836 -99.310158,449.991 -31.985019,187.0389 -52.891509,376.5006 -53.402433,566.4091 1.31899,188.6493 35.308564,382.4585 133.500641,546.1218 58.03023,98.8265 139.17751,183.5947 234.25155,247.3891 60.46605,38.3604 125.25241,71.497 194.33018,91.1806 30.6174,9.6555 63.78948,9.6975 94.05321,-1.2827 43.859,-15.7301 78.59986,-48.7853 114.33439,-77.4673 168.57214,-146.3675 307.33824,-322.5482 447.31404,-495.4007 85.8413,-105.4642 167.6343,-214.7534 259.8846,-314.6227 32.1959,-34.8136 119.9413,-101.9018 119.9413,-101.9018 -22.3615,-26.2702 -73.7693,-85.5436 -73.7693,-85.5436 0,0 -32.8482,24.1879 -46.4907,34.5492 -92.0855,73.2247 -162.2435,168.8539 -236.7809,258.8017 -142.6489,175.873 -279.8916,357.028 -438.02295,519.4974 -54.6849,54.6713 -110.80421,109.2884 -175.68048,151.5894 -24.44192,14.7794 -51.66582,-3.9682 -75.35576,-11.4124 -154.35655,-55.6985 -281.86535,-176.8037 -350.50964,-325.4069 -70.12945,-148.3238 -91.76032,-314.8007 -88.58673,-477.5058 4.41185,-208.1456 33.36507,-414.8235 73.73676,-618.8103 29.27245,-145.5695 63.93928,-290.1463 103.92562,-433.0805 21.97438,-78.5115 79.09645,-275.0051 79.09645,-275.0051 0,0 -61.18794,-59.1362 -88.056,-83.5854 z"
         id="path1785"
         transform="matrix(7.5,0,0,-7.5,0,37880)"
         sodipodi:nodetypes="ccccccccccccccccccccccccc" />
      <path
         style="fill:#d04241;fill-opacity:1;stroke:none;stroke-width:7.5px;stroke-linecap:butt;stroke-linejoin:miter;stroke-opacity:1"
         d="m 12329.532,7712.48 c 0,0 408.169,254.6776 629.941,344.766 143.67,58.3616 297.881,86.5816 448.242,124.512 100.498,25.3519 200.334,56.3295 303.222,68.847 102.777,12.5039 207.013,5.8727 310.548,5.8597 4441.208,-0.5562 9866.026,0 13333.007,0 -358.008,378.5062 -589.758,620.2065 -807.128,852.5393 -4025.932,0.6221 -8580.735,0.9979 -12802.285,0.5925 -65.787,-0.01 -134.546,-14.8424 -201.36,-25.4807 -112.706,-17.9453 -224.358,-42.0199 -336.221,-64.6341 -68.498,-13.8476 -137.542,-25.5808 -205.089,-43.5037 -43.799,-11.6215 -86.512,-27.0265 -129.475,-41.4322 -46.485,-15.5867 -93.133,-30.831 -138.797,-48.6826 -54.3,-21.228 -107.738,-44.6969 -160.549,-69.3982 -41.68,-19.495 -82.054,-41.6697 -123.26,-62.148 -50.61,-25.152 -102.375,-48.0218 -152.263,-74.5777 -50.656,-26.9651 -100.151,-56.11 -149.156,-85.9718 -126.102,-76.8424 -372.569,-239.6886 -372.569,-239.6886 0,0 398.246,-464.108 553.192,-641.5989 z"
         id="path1823"
         sodipodi:nodetypes="caaasccsaaaaaaaaacc" />
      <path
         style="opacity:1;fill:#3cdb4d;fill-opacity:1;fill-rule:nonzero;stroke-width:3.125"
         d="m 5466.4046,3595.3167 c 0,0 13.2679,60.6321 16.4643,88.2467 25.6121,163.0164 39.6272,328.4356 35.8428,493.664 -7.3659,142.3512 -35.8549,286.2457 -99.864,414.5145 -49.3598,92.962 -126.7461,168.1671 -208.5022,233.0323 -49.9574,30.6315 -103.1699,56.9855 -158.5816,76.2329 -28.1709,10.8864 -60.2836,4.4114 -82.5317,-15.5273 -93.638,-73.7991 -173.7151,-163.0462 -254.027,-250.6593 -156.414,-175.8473 -295.2446,-366.3854 -449.2042,-544.2612 -61.7036,-68.9494 -128.2401,-136.2526 -211.9431,-178.2084 -84.1043,-44.5933 -177.0948,-76.0826 -274.1619,-73.8888 -64.8256,0.2897 -240.2464,-2.3303 -240.2464,-2.3303 36.2413,38.9189 68.9738,73.1824 107.6114,113.668 0,0 120.2007,-8.0706 169.0841,-3.5425 91.2667,3.1551 174.965,47.9125 249.3593,97.6209 89.0251,65.1493 154.3989,156.3703 224.9997,240.1945 190.3546,233.7617 371.0128,479.5508 602.6248,675.1986 32.9434,29.5589 74.1104,52.6533 118.988,55.4382 88.2457,-3.5091 167.4839,-49.3253 241.2831,-93.7846 121.8245,-79.6027 219.0264,-195.3081 278.2523,-328.1348 71.6306,-154.4823 92.5283,-327.0392 89.4612,-495.8357 3.3658,-124.2213 -25.0798,-373.0433 -25.0798,-373.0433 0,0 -90.452,-89.3046 -129.8291,-128.5944 z"
         id="path2950"
         transform="matrix(7.5,0,0,-7.5,0,37880)"
         sodipodi:nodetypes="ccccccccccccccccccccccc" />
      <path
         style="opacity:1;fill:#3cdb4d;fill-opacity:1;fill-rule:nonzero;stroke-width:0.390625"
         d="m 3070.9808,1185.3424 c -12.2281,0.8503 -24.5239,1.2954 -36.6579,3.103 -12.217,1.9051 -22.4373,10.1078 -30.3085,19.223 -6.1611,7.3745 -10.4496,16.1921 -13.5321,25.2415 -1.9114,8.8427 -1.4372,18.2747 1.2993,26.8962 4.5987,11.7072 13.9778,21.0206 24.4339,27.7023 9.7611,6.0827 21.4112,7.8218 32.513,9.9486 23.4651,4.0467 47.3282,4.5706 71.082,4.6542 21.4931,0.048 43.0054,0.3559 64.4829,-0.6196 2.8258,-0.2468 3.2162,-4.0442 0.9375,-5.375 -36.5043,-36.702 -73.0083,-73.4042 -109.5122,-110.1066 -1.4109,-1.1731 -3.0677,-0.6757 -4.7379,-0.6676 z"
         id="path3099"
         transform="matrix(7.5,0,0,-7.5,0,37880)" />
      <path
         style="opacity:1;fill:#41ccd1;fill-opacity:1;fill-rule:nonzero;stroke-width:2.20971"
         d="m 3854.5995,1070.3924 c -45.7714,0.6082 -85.4908,27.3124 -126.1165,45.1113 -36.163,16.5259 -70.1854,37.3263 -106.1179,54.192 -51.0821,22.1148 -107.7726,14.6888 -161.8619,16.2551 -127.3111,-0.1237 -254.6907,-5.7496 -381.956,-0.386 -5.6005,8.9844 15.5337,17.8109 20.0985,26.4093 30.1384,29.3533 59.0859,60.4886 89.9596,88.7416 125.7043,-0.5975 251.4722,2.3468 377.1352,-1.4329 42.3574,-1.8348 85.534,-8.8995 122.2299,-31.4944 49.5674,-28.327 100.4368,-54.9265 153.319,-76.4878 32.8331,-8.0753 66.1916,4.0365 98.7116,8.2394 109.9105,20.1167 219.8971,40.1721 326.6099,73.7485 78.548,22.2199 156.4929,48.0334 228.2991,87.4907 48.3804,25.6086 92.2586,59.2124 133.942,94.6031 27.3246,30.718 41.7313,70.9605 58.6158,108.046 9.3024,18.507 11.1054,42.3247 30.61,53.5303 39.8775,35.7104 79.4811,72.0674 114.2617,112.7427 61.0855,84.0186 105.6752,178.2149 148.5314,272.4131 53.5986,127.1572 97.6014,258.2179 146.1335,387.4146 106.903,297.466 204.8192,598.6876 275.5062,906.9991 23.5926,97.3032 44.0324,200.8149 63.9764,298.8191 42.5623,43.0656 129.7515,128.573 129.7515,128.573 0,0 -1.9495,-18.8996 -2.4947,-26.3223 -6.5232,-93.1604 -27.2635,-182.6633 -44.4425,-274.2261 -28.2531,-144.5264 -63.5472,-287.5674 -104.2162,-429.084 -51.507,-185.5603 -111.0984,-368.7469 -175.3467,-550.2596 -43.6634,-125.4774 -91.2561,-249.4772 -136.1265,-374.5038 -36.5118,-97.2845 -78.4407,-192.7657 -128.0693,-284.097 -38.3209,-66.104 -77.7654,-133.2309 -134.1502,-185.8313 -29.1464,-29.0569 -60.8268,-57.1064 -78.4395,-95.1856 -24.8664,-44.6424 -43.5929,-94.6287 -83.399,-128.8194 -38.8539,-38.4152 -82.9445,-70.8819 -129.7453,-98.9293 -49.4742,-31.7696 -102.8718,-56.8779 -158.6621,-75.3597 -79.2451,-30.0408 -160.9369,-52.8651 -243.5549,-71.5122 -99.0909,-22.3048 -198.2913,-45.6143 -299.1337,-58.5193 -7.9275,-0.7292 -15.9009,-0.9129 -23.8584,-0.8782 z"
         id="path4826"
         transform="matrix(7.5,0,0,-7.5,0,37880)"
         sodipodi:nodetypes="cccccccccccccccccccccccccccccccccccc" />
    </g>
    <text
       xml:space="preserve"
       style="font-style:normal;font-variant:normal;font-weight:bold;font-stretch:normal;font-size:700px;line-height:1.25;font-family:Calibri;-inkscape-font-specification:'Calibri, Bold';font-variant-ligatures:normal;font-variant-caps:normal;font-variant-numeric:normal;font-variant-east-asian:normal;letter-spacing:0px;word-spacing:0px;stroke-width:0.75"
       x="629.8042"
       y="3985.3257"
       id="text953"><tspan
         sodipodi:role="line"
         id="tspan951"
         style="font-style:normal;font-variant:normal;font-weight:bold;font-stretch:normal;font-size:700px;font-family:Calibri;-inkscape-font-specification:'Calibri, Bold';font-variant-ligatures:normal;font-variant-caps:normal;font-variant-numeric:normal;font-variant-east-asian:normal;stroke-width:0.75"
         x="629.8042"
         y="3985.3257"><tspan
           style="font-style:normal;font-variant:normal;font-weight:bold;font-stretch:normal;font-size:700px;font-family:Calibri;-inkscape-font-specification:'Calibri, Bold';font-variant-ligatures:normal;font-variant-caps:normal;font-variant-numeric:normal;font-variant-east-asian:normal;fill:#3cdb4d;fill-opacity:1"
           id="tspan1005">G</tspan><tspan
           style="font-style:normal;font-variant:normal;font-weight:bold;font-stretch:normal;font-size:700px;font-family:Calibri;-inkscape-font-specification:'Calibri, Bold';font-variant-ligatures:normal;font-variant-caps:normal;font-variant-numeric:normal;font-variant-east-asian:normal;fill:#e2cb2d;fill-opacity:1"
           id="tspan1058">e</tspan><tspan
           id="tspan1792"
           style="font-style:normal;font-variant:normal;font-weight:bold;font-stretch:normal;font-size:700px;font-family:Calibri;-inkscape-font-specification:'Calibri, Bold';font-variant-ligatures:normal;font-variant-caps:normal;font-variant-numeric:normal;font-variant-east-asian:normal;fill:#d04241;fill-opacity:1">e</tspan><tspan
           style="font-style:normal;font-variant:normal;font-weight:bold;font-stretch:normal;font-size:700px;font-family:Calibri;-inkscape-font-specification:'Calibri, Bold';font-variant-ligatures:normal;font-variant-caps:normal;font-variant-numeric:normal;font-variant-east-asian:normal;fill:#41ccd1;fill-opacity:1"
           id="tspan1786">k </tspan><tspan
           style="font-style:normal;font-variant:normal;font-weight:bold;font-stretch:normal;font-size:700px;font-family:Calibri;-inkscape-font-specification:'Calibri, Bold';font-variant-ligatures:normal;font-variant-caps:normal;font-variant-numeric:normal;font-variant-east-asian:normal;fill:#3cdb4d;fill-opacity:1"
           id="tspan1788">T</tspan><tspan
           style="font-style:normal;font-variant:normal;font-weight:bold;font-stretch:normal;font-size:700px;font-family:Calibri;-inkscape-font-specification:'Calibri, Bold';font-variant-ligatures:normal;font-variant-caps:normal;font-variant-numeric:normal;font-variant-east-asian:normal;fill:#e2cb2d;fill-opacity:1"
           id="tspan1794">e</tspan><tspan
           style="font-style:normal;font-variant:normal;font-weight:bold;font-stretch:normal;font-size:700px;font-family:Calibri;-inkscape-font-specification:'Calibri, Bold';font-variant-ligatures:normal;font-variant-caps:normal;font-variant-numeric:normal;font-variant-east-asian:normal;fill:#d04241;fill-opacity:1"
           id="tspan1796">c</tspan><tspan
           style="font-style:normal;font-variant:normal;font-weight:bold;font-stretch:normal;font-size:700px;font-family:Calibri;-inkscape-font-specification:'Calibri, Bold';font-variant-ligatures:normal;font-variant-caps:normal;font-variant-numeric:normal;font-variant-east-asian:normal;fill:#41ccd1;fill-opacity:1"
           id="tspan1798">h</tspan></tspan></text>
  </g>
</svg>
